<?xml version="1.0" encoding="utf-8" standalone="no"?>
<svg xmlns="http://www.w3.org/2000/svg" xmlns:xlink="http://www.w3.org/1999/xlink" version="1.1" id="Layer_1" x="0px" y="0px" viewBox="0 0 100 70" width="75" height="61" style="enable-background:new 0 0 100 70;" xml:space="preserve">
  <style type="text/css">
	.st0{fill-rule:evenodd;clip-rule:evenodd;fill:#A3D8F1;}
	.st1{fill-rule:evenodd;clip-rule:evenodd;fill:#E26841;}
	.st2{fill-rule:evenodd;clip-rule:evenodd;}
	.st3{fill-rule:evenodd;clip-rule:evenodd;fill:#14254C;}
	.st4{fill-rule:evenodd;clip-rule:evenodd;fill:#E9AC6A;}
	.st5{fill-rule:evenodd;clip-rule:evenodd;fill:#DC7F1B;}
	.st6{fill:#14254C;}
	.st7{fill-rule:evenodd;clip-rule:evenodd;fill:#22B573;}
	.st8{fill-rule:evenodd;clip-rule:evenodd;fill:#00264B;}
	.st9{fill:#FFFFFF;}
</style>
  <path class="st0" d="M70,35c0,5.3-1.2,10.3-3.2,14.7c-4.8,10.4-14.6,18-26.4,19.8C38.6,69.9,36.8,70,35,70c-2.6,0-5.1-0.3-7.5-0.8  c-6.9-1.5-13.1-5.1-17.8-10C7.1,56.5,5,53.4,3.4,50c-0.4-0.8-0.7-1.5-1-2.3C0.8,43.7,0,39.5,0,35C0,15.7,15.7,0,35,0S70,15.7,70,35z  " />
  <path class="st1" d="M40.9,65.6l-0.5,4C38.6,69.9,36.8,70,35,70c-2.6,0-5.1-0.3-7.5-0.8c-6.9-1.5-13.1-5.1-17.8-10  C7.1,56.5,5,53.4,3.4,50c3.2-4.4,8.2-7.5,14-8.3c1-0.1,1.9-0.2,2.9-0.2c0.6,0,1.1,0,1.7,0.1c4.7,0.4,8.9,2.3,12.2,5.2  c3,2.7,5.3,6.2,6.3,10.1C41.2,59.6,41.4,62.6,40.9,65.6z" />
  <path id="Fill-3_1_" class="st2" d="M17.3,48.5L32,61.3l13.2-7l-10-8c-1.4-1.1-2.3-2.9-2.3-4.7v-9H17.3V48.5z" />
  <path class="st2" d="M21.9,32.6v15.9l-2.3,2l-9.9,8.7C7.1,56.5,5,53.4,3.4,50c-0.4-0.8-0.7-1.5-1-2.3L4,46.3  c1.4-1.1,2.3-2.9,2.3-4.7v-9H21.9z" />
  <path id="Fill-7" class="st1" d="M28.1,17.8l9.1-8.4c2-1.9,4.9-2.3,7.4-1c3,1.5,6.6,0.5,8.4-2.3l3.6-5.7L59.3,3l-5.1,7.2  c-1.9,2.7-5.6,3.5-8.5,1.9l-1.1-0.6c-2.1-1.2-4.6-1.1-6.7,0.2L28.1,17.8z" />
  <path class="st1" d="M62.8,13.7l-8,6.2c-2.4,1.9-5.8,1.9-8.2,0l-3.2-2.5c-1.4-1.1-3.2-1.6-5-1.3l-10.2,1.5l10.1-3.7  c1.9-0.7,4.1-0.5,5.8,0.6l2.5,1.6c2.5,1.5,5.7,1.3,7.9-0.6l5.6-4.8L62.8,13.7z" />
  <path id="Fill-12" class="st3" d="M27,11.6h-5.5c-8.4,0-15.3,6.8-15.3,15.3v15.6c0,3.4,2.7,6.1,6.1,6.1H27c3.4,0,6.1-2.7,6.1-6.1  V17.7C33.1,14.3,30.3,11.6,27,11.6" />
  <path id="Fill-14" class="st4" d="M31.2,32.2c0,6.7-5.2,12.1-11.6,12.1S8,38.8,8,32.2s5.2-12.1,11.6-12.1S31.2,25.5,31.2,32.2" />
  <polygon id="Fill-20" class="st5" points="14.6,35.1 20.1,35.1 20.1,25.6 " />
  <polygon id="Stroke-28" class="st6" points="7.5,24.7 32.6,24.7 32.6,23.5 7.5,23.5 " />
  <polygon id="Stroke-30" class="st6" points="7.5,30.2 32.6,30.2 32.6,29 7.5,29 " />
  <polygon id="Stroke-32" class="st6" points="7.5,41.2 31.1,41.2 31.1,39.9 7.5,39.9 " />
  <polygon id="Stroke-34" class="st6" points="7.5,35.7 32.6,35.7 32.6,34.4 7.5,34.4 " />
  <path class="st2" d="M66.8,49.7c-4.8,10.4-14.6,18-26.4,19.8C38.6,69.9,36.8,70,35,70c-2.6,0-5.1-0.3-7.5-0.8l-0.4-2.8  c-0.5-3.1-0.3-6.2,0.4-9c1.1-4.2,3.4-7.9,6.5-10.7c0.2-0.2,0.5-0.5,0.8-0.7c3.8-3.2,8.7-5.1,14.2-5.1C56.3,40.9,62.7,44.4,66.8,49.7  z" />
  <g id="Group-15" transform="translate(15.602740, 29.250000)">
    <path id="Fill-3_2_" class="st7" d="M40.9-2.6c5.8-3,11.9-4.7,16.4-2.3c2.5,1.4,3.1,3.3,5.4,4c3,0.9,7.5-0.8,14.8-9.4l4.1,4.4   C70.9,4.7,65.2,5.9,61.9,4.5c-2.6-1-3.2-3.4-6.7-5.5C50.4-3.7,44.9-3.4,40.9-2.6" />
    <path id="Fill-5_2_" class="st7" d="M42.4-3.2c2.9-7.4,9.8-11.7,16-10.9c4.9,0.7,7.9,4.3,8.7,5.5c-1.6,0.9-3.2,1.9-4.8,2.8   c-1.2-1-3-2.2-5.4-2.8C49.3-10.4,42.9-3.7,42.4-3.2" />
    <path id="Fill-7_1_" class="st8" d="M21.5,15.6l-2-13.4l0,0c0-7.4,6.1-13.4,13.5-13.4s13.5,6,13.5,13.4l-1.7,13.4   C44,21.4,39,25.7,33.2,25.7S22.4,21.4,21.5,15.6z" />
    <polygon id="Fill-9" class="st7" points="19.2,5 46.7,5 46.7,-0.8 19.2,-0.8  " />
    <path id="Fill-11" class="st4" d="M41.4,8.8H24.9c-1.8,0-3.3-1.5-3.3-3.3l0,0c0-1.8,1.5-3.3,3.3-3.3h16.5c1.8,0,3.3,1.5,3.3,3.3   l0,0C44.7,7.3,43.2,8.8,41.4,8.8" />
    <polygon id="Fill-14_1_" class="st5" points="30.8,8.8 33.7,8.8 33.7,3.3  " />
  </g>
  <g>
    <g>
      <path class="st9" d="M42.4,35.6h-1.2c-0.5,0-1-0.4-1-1v0c0-0.5,0.4-1,1-1h1.2c0.5,0,1,0.4,1,1v0C43.3,35.2,42.9,35.6,42.4,35.6z" />
      <circle cx="40.4" cy="34.7" r="1" />
    </g>
    <g>
      <path class="st9" d="M57,35.6h-1.2c-0.5,0-1-0.4-1-1v0c0-0.5,0.4-1,1-1H57c0.5,0,1,0.4,1,1v0C57.9,35.2,57.5,35.6,57,35.6z" />
      <circle cx="55" cy="34.7" r="1" />
    </g>
  </g>
  <g>
    <g>
      <path class="st9" d="M13.3,28.9h-1.2c-0.5,0-1-0.4-1-1v0c0-0.5,0.4-1,1-1h1.2c0.5,0,1,0.4,1,1v0C14.2,28.5,13.8,28.9,13.3,28.9z" />
      <circle cx="11.3" cy="28" r="1" />
    </g>
    <g>
      <path class="st9" d="M27.9,28.9h-1.2c-0.5,0-1-0.4-1-1v0c0-0.5,0.4-1,1-1h1.2c0.5,0,1,0.4,1,1v0C28.9,28.5,28.4,28.9,27.9,28.9z" />
      <circle cx="25.9" cy="28" r="1" />
    </g>
  </g>
</svg>